<svg width="36" height="36" viewBox="0 0 36 36" fill="none" xmlns="http://www.w3.org/2000/svg">
<path fill-rule="evenodd" clip-rule="evenodd" d="M16 28C16 30.1217 15.1571 32.1566 13.6569 33.6569C12.1566 35.1571 10.1217 36 8 36C5.87827 36 3.84344 35.1571 2.34315 33.6569C0.842854 32.1566 0 30.1217 0 28C0 23.58 8 0 8 0H12L8 20C10.1217 20 12.1566 20.8429 13.6569 22.3431C15.1571 23.8434 16 25.8783 16 28ZM36 28C36 30.1217 35.1571 32.1566 33.6569 33.6569C32.1566 35.1571 30.1217 36 28 36C25.8783 36 23.8434 35.1571 22.3431 33.6569C20.8429 32.1566 20 30.1217 20 28C20 23.58 28 0 28 0H32L28 20C30.1217 20 32.1566 20.8429 33.6569 22.3431C35.1571 23.8434 36 25.8783 36 28Z" fill="#DADDE6"/>
</svg>
