<svg width="48" height="48" viewBox="0 0 48 48" fill="none" xmlns="http://www.w3.org/2000/svg">
<rect width="48" height="48" rx="4" fill="#EDEFF5"/>
<g clip-path="url(#clip0_4112_13117)">
<path d="M17.3189 26.5034L16.4835 29.6221L13.4301 29.6867C12.5176 27.9942 12 26.0577 12 23.9999C12 22.01 12.4839 20.1335 13.3417 18.4812H13.3424L16.0608 18.9796L17.2516 21.6816C17.0024 22.4082 16.8665 23.1882 16.8665 23.9999C16.8666 24.8808 17.0262 25.7247 17.3189 26.5034Z" fill="#FBBB00"/>
<path d="M35.7903 21.7583C35.9281 22.4842 36 23.2339 36 24.0001C36 24.8592 35.9097 25.6972 35.7376 26.5056C35.1534 29.2563 33.627 31.6583 31.5125 33.3581L31.5119 33.3574L28.0879 33.1827L27.6034 30.1576C29.0064 29.3348 30.1029 28.0471 30.6805 26.5056H24.2638V21.7583H30.7741H35.7903Z" fill="#518EF8"/>
<path d="M31.5119 33.3572L31.5125 33.3579C29.4561 35.0109 26.8437 35.9999 24 35.9999C19.4301 35.9999 15.4569 33.4456 13.4301 29.6867L17.3189 26.5034C18.3323 29.208 20.9413 31.1333 24 31.1333C25.3147 31.1333 26.5464 30.7779 27.6033 30.1575L31.5119 33.3572Z" fill="#28B446"/>
<path d="M31.6595 14.7626L27.7721 17.9452C26.6782 17.2615 25.3852 16.8666 24 16.8666C20.8721 16.8666 18.2143 18.8802 17.2516 21.6817L13.3424 18.4813H13.3417C15.3389 14.6308 19.3622 12 24 12C26.9116 12 29.5813 13.0372 31.6595 14.7626Z" fill="#F14336"/>
</g>
<defs>
<clipPath id="clip0_4112_13117">
<rect width="24" height="24" fill="white" transform="translate(12 12)"/>
</clipPath>
</defs>
</svg>
