<svg width="48" height="48" viewBox="0 0 48 48" fill="none" xmlns="http://www.w3.org/2000/svg">
<rect width="48" height="48" rx="24" fill="#0A65CC"/>
<path d="M20.697 29.169C19.9115 29.1657 19.2403 28.9586 18.6835 28.5476C18.1267 28.1366 17.7008 27.5384 17.4058 26.7528C17.1108 25.9673 16.9633 25.0211 16.9633 23.9141C16.9633 22.8104 17.1108 21.8674 17.4058 21.0852C17.7041 20.303 18.1317 19.7064 18.6885 19.2955C19.2486 18.8845 19.9181 18.679 20.697 18.679C21.4759 18.679 22.1437 18.8861 22.7006 19.3004C23.2574 19.7114 23.6833 20.308 23.9782 21.0902C24.2765 21.8691 24.4257 22.8104 24.4257 23.9141C24.4257 25.0244 24.2782 25.9723 23.9832 26.7578C23.6882 27.54 23.2623 28.1383 22.7055 28.5526C22.1487 28.9635 21.4792 29.169 20.697 29.169ZM20.697 27.8416C21.3864 27.8416 21.925 27.5052 22.3128 26.8324C22.7039 26.1596 22.8994 25.1868 22.8994 23.9141C22.8994 23.0689 22.8099 22.3546 22.6309 21.7713C22.4553 21.1847 22.2017 20.7405 21.8703 20.4389C21.5422 20.134 21.1511 19.9815 20.697 19.9815C20.0109 19.9815 19.4723 20.3196 19.0812 20.9957C18.6901 21.6719 18.4929 22.6446 18.4896 23.9141C18.4896 24.7625 18.5774 25.4801 18.7531 26.0668C18.9321 26.6501 19.1856 27.0926 19.5138 27.3942C19.8419 27.6925 20.2363 27.8416 20.697 27.8416ZM30.0523 18.8182V29H28.5111V20.3594H28.4514L26.0154 21.9503V20.4787L28.5558 18.8182H30.0523Z" fill="white"/>
</svg>
