<svg width="48" height="48" viewBox="0 0 48 48" fill="none" xmlns="http://www.w3.org/2000/svg">
<path d="M19.9939 29.169C19.2084 29.1657 18.5372 28.9586 17.9804 28.5476C17.4236 28.1366 16.9977 27.5384 16.7027 26.7528C16.4077 25.9673 16.2602 25.0211 16.2602 23.9141C16.2602 22.8104 16.4077 21.8674 16.7027 21.0852C17.001 20.303 17.4285 19.7064 17.9854 19.2955C18.5455 18.8845 19.215 18.679 19.9939 18.679C20.7728 18.679 21.4406 18.8861 21.9974 19.3004C22.5542 19.7114 22.9801 20.308 23.2751 21.0902C23.5734 21.8691 23.7226 22.8104 23.7226 23.9141C23.7226 25.0244 23.5751 25.9723 23.2801 26.7578C22.9851 27.54 22.5592 28.1383 22.0024 28.5526C21.4456 28.9635 20.7761 29.169 19.9939 29.169ZM19.9939 27.8416C20.6833 27.8416 21.2219 27.5052 21.6096 26.8324C22.0007 26.1596 22.1963 25.1868 22.1963 23.9141C22.1963 23.0689 22.1068 22.3546 21.9278 21.7713C21.7522 21.1847 21.4986 20.7405 21.1672 20.4389C20.839 20.134 20.4479 19.9815 19.9939 19.9815C19.3078 19.9815 18.7692 20.3196 18.3781 20.9957C17.987 21.6719 17.7898 22.6446 17.7865 23.9141C17.7865 24.7625 17.8743 25.4801 18.05 26.0668C18.229 26.6501 18.4825 27.0926 18.8106 27.3942C19.1388 27.6925 19.5332 27.8416 19.9939 27.8416ZM29.031 29.1392C28.3482 29.1392 27.7384 29.0215 27.2014 28.7862C26.6678 28.5509 26.2452 28.2244 25.9337 27.8068C25.6254 27.3859 25.4597 26.8987 25.4365 26.3452H26.9976C27.0175 26.6468 27.1186 26.9086 27.3009 27.1307C27.4865 27.3494 27.7284 27.5185 28.0267 27.6378C28.325 27.7571 28.6565 27.8168 29.021 27.8168C29.4221 27.8168 29.7767 27.7472 30.085 27.608C30.3965 27.4687 30.6401 27.2749 30.8158 27.0263C30.9914 26.7744 31.0793 26.4844 31.0793 26.1562C31.0793 25.8149 30.9914 25.5149 30.8158 25.2564C30.6434 24.9946 30.3899 24.7891 30.0551 24.6399C29.7237 24.4908 29.3227 24.4162 28.852 24.4162H27.9919V23.1634H28.852C29.2298 23.1634 29.5613 23.0954 29.8463 22.9595C30.1347 22.8236 30.3601 22.6347 30.5225 22.3928C30.6849 22.1475 30.7661 21.8608 30.7661 21.5327C30.7661 21.2178 30.6948 20.9444 30.5523 20.7124C30.4131 20.477 30.2142 20.2931 29.9557 20.1605C29.7005 20.0279 29.3989 19.9616 29.0509 19.9616C28.7194 19.9616 28.4095 20.023 28.1212 20.1456C27.8361 20.2649 27.6041 20.4373 27.4252 20.6626C27.2462 20.8847 27.1501 21.1515 27.1368 21.4631H25.6503C25.6669 20.9129 25.8293 20.429 26.1375 20.0114C26.4491 19.5937 26.8601 19.2673 27.3705 19.032C27.8809 18.7966 28.4477 18.679 29.0708 18.679C29.7237 18.679 30.2871 18.8066 30.7611 19.0618C31.2384 19.3137 31.6063 19.6501 31.8648 20.071C32.1266 20.492 32.2559 20.9527 32.2526 21.4531C32.2559 22.0232 32.0968 22.5071 31.7753 22.9048C31.4571 23.3026 31.0329 23.5694 30.5026 23.7053V23.7848C31.1787 23.8875 31.7024 24.156 32.0736 24.5902C32.4481 25.0244 32.6337 25.563 32.6304 26.206C32.6337 26.7661 32.478 27.2682 32.1631 27.7124C31.8515 28.1565 31.4256 28.5062 30.8854 28.7614C30.3451 29.0133 29.727 29.1392 29.031 29.1392Z" fill="#5E6670"/>
</svg>
