<svg width="48" height="48" viewBox="0 0 48 48" fill="none" xmlns="http://www.w3.org/2000/svg">
<path d="M19.7126 29.169C18.9271 29.1657 18.2559 28.9586 17.6991 28.5476C17.1423 28.1366 16.7164 27.5384 16.4214 26.7528C16.1265 25.9673 15.979 25.0211 15.979 23.9141C15.979 22.8104 16.1265 21.8674 16.4214 21.0852C16.7197 20.303 17.1473 19.7064 17.7041 19.2955C18.2642 18.8845 18.9337 18.679 19.7126 18.679C20.4915 18.679 21.1594 18.8861 21.7162 19.3004C22.273 19.7114 22.6989 20.308 22.9939 21.0902C23.2922 21.8691 23.4413 22.8104 23.4413 23.9141C23.4413 25.0244 23.2938 25.9723 22.9988 26.7578C22.7039 27.54 22.278 28.1383 21.7211 28.5526C21.1643 28.9635 20.4948 29.169 19.7126 29.169ZM19.7126 27.8416C20.402 27.8416 20.9406 27.5052 21.3284 26.8324C21.7195 26.1596 21.915 25.1868 21.915 23.9141C21.915 23.0689 21.8256 22.3546 21.6466 21.7713C21.4709 21.1847 21.2174 20.7405 20.8859 20.4389C20.5578 20.134 20.1667 19.9815 19.7126 19.9815C19.0265 19.9815 18.488 20.3196 18.0969 20.9957C17.7058 21.6719 17.5086 22.6446 17.5052 23.9141C17.5052 24.7625 17.5931 25.4801 17.7687 26.0668C17.9477 26.6501 18.2013 27.0926 18.5294 27.3942C18.8575 27.6925 19.2519 27.8416 19.7126 27.8416ZM25.205 29V27.8864L28.6503 24.3168C29.0182 23.929 29.3215 23.5893 29.5601 23.2976C29.8021 23.0026 29.9827 22.7225 30.102 22.4574C30.2213 22.1922 30.281 21.9105 30.281 21.6122C30.281 21.2741 30.2014 20.9825 30.0423 20.7372C29.8833 20.4886 29.6662 20.2981 29.3911 20.1655C29.116 20.0296 28.8061 19.9616 28.4614 19.9616C28.0968 19.9616 27.7786 20.0362 27.5068 20.1854C27.2351 20.3345 27.0262 20.545 26.8804 20.8168C26.7346 21.0885 26.6617 21.4067 26.6617 21.7713H25.195C25.195 21.1515 25.3376 20.6096 25.6226 20.1456C25.9076 19.6816 26.2987 19.322 26.7959 19.0668C27.2931 18.8082 27.8582 18.679 28.4912 18.679C29.1309 18.679 29.6943 18.8066 30.1816 19.0618C30.6721 19.3137 31.0549 19.6584 31.33 20.0959C31.6051 20.5301 31.7426 21.0206 31.7426 21.5675C31.7426 21.9453 31.6714 22.3149 31.5289 22.6761C31.3896 23.0374 31.146 23.4401 30.798 23.8842C30.45 24.325 29.9661 24.8603 29.3463 25.4901L27.3229 27.608V27.6825H31.9067V29H25.205Z" fill="#5E6670"/>
</svg>
