<svg width="48" height="48" viewBox="0 0 48 48" fill="none" xmlns="http://www.w3.org/2000/svg">
<path d="M19.6648 29.169C18.8793 29.1657 18.2081 28.9586 17.6513 28.5476C17.0945 28.1366 16.6686 27.5384 16.3736 26.7528C16.0786 25.9673 15.9311 25.0211 15.9311 23.9141C15.9311 22.8104 16.0786 21.8674 16.3736 21.0852C16.6719 20.303 17.0994 19.7064 17.6562 19.2955C18.2164 18.8845 18.8859 18.679 19.6648 18.679C20.4437 18.679 21.1115 18.8861 21.6683 19.3004C22.2251 19.7114 22.651 20.308 22.946 21.0902C23.2443 21.8691 23.3935 22.8104 23.3935 23.9141C23.3935 25.0244 23.246 25.9723 22.951 26.7578C22.656 27.54 22.2301 28.1383 21.6733 28.5526C21.1165 28.9635 20.447 29.169 19.6648 29.169ZM19.6648 27.8416C20.3542 27.8416 20.8928 27.5052 21.2805 26.8324C21.6716 26.1596 21.8672 25.1868 21.8672 23.9141C21.8672 23.0689 21.7777 22.3546 21.5987 21.7713C21.4231 21.1847 21.1695 20.7405 20.8381 20.4389C20.5099 20.134 20.1188 19.9815 19.6648 19.9815C18.9787 19.9815 18.4401 20.3196 18.049 20.9957C17.6579 21.6719 17.4607 22.6446 17.4574 23.9141C17.4574 24.7625 17.5452 25.4801 17.7209 26.0668C17.8999 26.6501 18.1534 27.0926 18.4815 27.3942C18.8097 27.6925 19.2041 27.8416 19.6648 27.8416ZM28.5179 29.1392C27.8948 29.1392 27.3347 29.0199 26.8375 28.7812C26.3437 28.5393 25.9493 28.2079 25.6543 27.7869C25.3593 27.366 25.2019 26.8854 25.182 26.3452H26.6735C26.7099 26.7827 26.9038 27.1423 27.2551 27.424C27.6065 27.7057 28.0274 27.8466 28.5179 27.8466C28.909 27.8466 29.2554 27.7571 29.557 27.5781C29.8619 27.3958 30.1006 27.1456 30.2729 26.8274C30.4486 26.5092 30.5364 26.1463 30.5364 25.7386C30.5364 25.3243 30.4469 24.9548 30.2679 24.63C30.089 24.3052 29.842 24.05 29.5272 23.8643C29.2156 23.6787 28.8577 23.5843 28.4533 23.581C28.1451 23.581 27.8352 23.634 27.5236 23.7401C27.2121 23.8461 26.9602 23.9853 26.7679 24.1577L25.361 23.9489L25.9327 18.8182H31.5307V20.1357H27.2104L26.8873 22.9844H26.9469C27.1458 22.7921 27.4093 22.6314 27.7374 22.5021C28.0688 22.3729 28.4235 22.3082 28.8013 22.3082C29.4211 22.3082 29.973 22.4557 30.4569 22.7507C30.9441 23.0457 31.3269 23.4484 31.6053 23.9588C31.887 24.4659 32.0262 25.0492 32.0229 25.7088C32.0262 26.3684 31.8771 26.9567 31.5755 27.4737C31.2772 27.9908 30.8629 28.3984 30.3326 28.6967C29.8056 28.9917 29.2007 29.1392 28.5179 29.1392Z" fill="#5E6670"/>
</svg>
