<svg width="48" height="48" viewBox="0 0 48 48" fill="none" xmlns="http://www.w3.org/2000/svg">
<rect width="48" height="48" rx="24" fill="#F1F2F4"/>
<path d="M19.9255 29.169C19.14 29.1657 18.4688 28.9586 17.912 28.5476C17.3552 28.1366 16.9293 27.5384 16.6343 26.7528C16.3393 25.9673 16.1919 25.0211 16.1919 23.9141C16.1919 22.8104 16.3393 21.8674 16.6343 21.0852C16.9326 20.303 17.3602 19.7064 17.917 19.2955C18.4771 18.8845 19.1466 18.679 19.9255 18.679C20.7044 18.679 21.3722 18.8861 21.9291 19.3004C22.4859 19.7114 22.9118 20.308 23.2068 21.0902C23.5051 21.8691 23.6542 22.8104 23.6542 23.9141C23.6542 25.0244 23.5067 25.9723 23.2117 26.7578C22.9168 27.54 22.4909 28.1383 21.934 28.5526C21.3772 28.9635 20.7077 29.169 19.9255 29.169ZM19.9255 27.8416C20.6149 27.8416 21.1535 27.5052 21.5413 26.8324C21.9324 26.1596 22.1279 25.1868 22.1279 23.9141C22.1279 23.0689 22.0384 22.3546 21.8595 21.7713C21.6838 21.1847 21.4302 20.7405 21.0988 20.4389C20.7707 20.134 20.3796 19.9815 19.9255 19.9815C19.2394 19.9815 18.7008 20.3196 18.3097 20.9957C17.9186 21.6719 17.7214 22.6446 17.7181 23.9141C17.7181 24.7625 17.806 25.4801 17.9816 26.0668C18.1606 26.6501 18.4142 27.0926 18.7423 27.3942C19.0704 27.6925 19.4648 27.8416 19.9255 27.8416ZM25.2041 27.0114V25.7685L29.604 18.8182H30.5834V20.6477H29.9619L26.8149 25.6293V25.7088H32.8454V27.0114H25.2041ZM30.0315 29V26.6335L30.0415 26.0668V18.8182H31.4981V29H30.0315Z" fill="#18191C"/>
</svg>
