<svg width="28" height="28" viewBox="0 0 28 28" fill="none" xmlns="http://www.w3.org/2000/svg">
<path d="M12.9241 4.51345C13.3643 3.62165 14.636 3.62165 15.0762 4.51345L17.3262 9.07174C17.5009 9.42555 17.8383 9.6709 18.2287 9.72797L23.2623 10.4637C24.2462 10.6075 24.6383 11.8169 23.926 12.5107L20.2856 16.0564C20.0026 16.3321 19.8734 16.7295 19.9402 17.1189L20.7991 22.1266C20.9672 23.107 19.9382 23.8546 19.0578 23.3916L14.5587 21.0256C14.209 20.8417 13.7913 20.8417 13.4416 21.0256L8.94252 23.3916C8.06217 23.8546 7.03311 23.107 7.20125 22.1266L8.06013 17.1189C8.12693 16.7295 7.99773 16.3321 7.71468 16.0564L4.07431 12.5107C3.362 11.8169 3.75414 10.6075 4.73804 10.4637L9.7716 9.72797C10.162 9.6709 10.4995 9.42555 10.6741 9.07174L12.9241 4.51345Z" fill="#FFAA00"/>
</svg>
